<?xml version="1.0" encoding="UTF-8"?>
<svg width="12px" height="23px" viewBox="0 0 12 23" version="1.1" xmlns="http://www.w3.org/2000/svg" xmlns:xlink="http://www.w3.org/1999/xlink">
    <title>XMLID_835_</title>
    <g id="Page-1" stroke="none" stroke-width="1" fill="none" fill-rule="evenodd">
        <g id="01" transform="translate(-32.000000, -674.000000)" fill="#fff" fill-rule="nonzero">
            <g id="Group-4" transform="translate(27.000000, 674.000000)">
                <path d="M5.383154,12.2498 L7.98714518,12.2498 L7.98714518,22.6290323 C7.98714518,22.8339548 8.15864491,23 8.37029918,23 L12.7854593,23 C12.9971136,23 13.1686133,22.8339548 13.1686133,22.6290323 L13.1686133,12.2986935 L16.1621188,12.2986935 C16.3567611,12.2986935 16.5205211,12.1572806 16.542744,11.9700903 L16.9973946,8.14897419 C17.0098854,8.04384194 16.9754781,7.93856129 16.9028321,7.85969355 C16.8301095,7.78075161 16.7260449,7.73556774 16.616846,7.73556774 L13.1687666,7.73556774 L13.1687666,5.34030323 C13.1687666,4.61825161 13.570312,4.25210645 14.3623679,4.25210645 C14.4752451,4.25210645 16.616846,4.25210645 16.616846,4.25210645 C16.8285003,4.25210645 17,4.0859871 17,3.88113871 L17,0.373712903 C17,0.168790323 16.8285003,0.00274516129 16.616846,0.00274516129 L13.5098503,0.00274516129 C13.4879338,0.00170645161 13.4392733,0 13.3675469,0 C12.8284492,0 10.9545963,0.10246129 9.47439573,1.42088065 C7.83434337,2.8819 8.06232,4.63123548 8.1168045,4.93453871 L8.1168045,7.73549355 L5.383154,7.73549355 C5.17149973,7.73549355 5,7.90153871 5,8.10646129 L5,11.8787581 C5,12.0836806 5.17149973,12.2498 5.383154,12.2498 Z" id="XMLID_835_"></path>
            </g>
        </g>
    </g>
</svg>