<?xml version="1.0" encoding="UTF-8"?>
<svg width="21px" height="16px" viewBox="0 0 21 16" version="1.1" xmlns="http://www.w3.org/2000/svg" xmlns:xlink="http://www.w3.org/1999/xlink">
    <title>Path</title>
    <g id="Page-1" stroke="none" stroke-width="1" fill="none" fill-rule="evenodd">
        <g id="01" transform="translate(-27.000000, -741.000000)" fill="#fff">
            <g id="Group-4" transform="translate(27.000000, 674.000000)">
                <path d="M18.8509057,70.9856342 C18.8592122,71.1588293 18.8632223,71.3328299 18.8632223,71.507636 C18.8632223,76.8449972 14.5295161,82.9997315 6.60424737,83 L6.60453379,83 L6.60424737,83 C4.17101313,83 1.90677341,82.3313866 0,81.1856141 C0.337129668,81.2229383 0.680274376,81.2414661 1.02771557,81.2414661 C3.04648365,81.2414661 4.90427736,80.5959454 6.3791123,79.5124694 C4.49296195,79.47971 2.90269516,78.3119189 2.35389271,76.7069781 C2.61655023,76.7542376 2.886655,76.7800154 3.16363412,76.7800154 C3.55690433,76.7800154 3.93785798,76.7303393 4.29990719,76.6377002 C2.32840034,76.2676803 0.843253863,74.6342765 0.843253863,72.6783808 C0.843253863,72.6601215 0.843253863,72.6437418 0.843826689,72.6268251 C1.42442303,72.9294465 2.08837084,73.1115027 2.79528339,73.1319102 C1.63838726,72.4082503 0.877912037,71.1711811 0.877912037,69.7697781 C0.877912037,69.0297386 1.09130337,68.3364213 1.46137266,67.7395025 C3.58612037,70.1835666 6.76149816,71.790924 10.3424627,71.9598228 C10.2685635,71.6639143 10.2304681,71.355654 10.2304681,71.0388011 C10.2304681,68.8090155 12.160156,67 14.5395412,67 C15.7789296,67 16.8983032,67.4911221 17.6845573,68.2762729 C18.6661575,68.0947538 19.5878935,67.7585674 20.4205495,67.2959084 C20.0983142,68.2386802 19.4154619,69.0297386 18.5258061,69.5299902 C19.3974167,69.4322492 20.2280676,69.2155539 21,68.8938677 C20.4234137,69.7039908 19.6921545,70.4155674 18.8509057,70.9856342 Z" id="Path"></path>
            </g>
        </g>
    </g>
</svg>