<?xml version="1.0" encoding="utf-8"?>
<!-- Generator: Adobe Illustrator 24.0.1, SVG Export Plug-In . SVG Version: 6.00 Build 0)  -->
<svg version="1.1" id="Layer_1" xmlns="http://www.w3.org/2000/svg" xmlns:xlink="http://www.w3.org/1999/xlink" x="0px" y="0px"
	 viewBox="0 0 21 37" style="enable-background:new 0 0 21 37;" xml:space="preserve">
<style type="text/css">
	.st0{fill-rule:evenodd;clip-rule:evenodd;}
</style>
<title>Group 3</title>
<g id="Page-1">
	<g id="Group-3" transform="translate(1.000000, 1.000000)">
		<g id="Rectangle">
			<path d="M9.5,36C3.7,36-1,31.3-1,25.5v-16C-1,3.7,3.7-1,9.5-1C15.3-1,20,3.7,20,9.5v16C20,31.3,15.3,36,9.5,36z M9.5,1
				C4.8,1,1,4.8,1,9.5v16C1,30.2,4.8,34,9.5,34c4.7,0,8.5-3.8,8.5-8.5v-16C18,4.8,14.2,1,9.5,1z"/>
		</g>
		<g id="Oval">
			<circle class="st0" cx="9.5" cy="7.5" r="1.5"/>
		</g>
	</g>
</g>
</svg>
